#!OML:ASF H:\Dans Jumps\Project 1\Capture day 1\Session 1\subject.ASF
:FULLY-SPECIFIED
:DEGREES
419
root 0.481102 17.7425 7.41704 9.50919 -0.43631 -1.39203
lowerback -0.863983 -0.321443 -0.392387
upperback 3.24408 -0.482016 1.91638
thorax 3.84259 -0.285249 2.17491
lowerneck -11.6889 0.504289 -1.84486
upperneck 37.38 0.696618 1.47111
head 14.9134 0.231392 1.05277
rclavicle 6.06293e-015 -2.38542e-015
rhumerus -25.8453 -14.9405 -79.3815
rradius 22.745
rwrist 38.5992
rhand -15.8239 -25.6223
rfingers 7.12502
rthumb 10.3701 -55.3466
lclavicle 6.06293e-015 -2.38542e-015
lhumerus -22.9454 -4.25074 90.1782
lradius 18.1362
lwrist 5.65826
lhand -25.1429 -5.89187
lfingers 7.12502
lthumb 1.37352 24.0835
rfemur -13.0172 -1.63048 19.2257
rtibia 18.9214
rfoot -13.0591 -2.35461
rtoes 14.4407
lfemur -13.8495 7.08561 -18.1383
ltibia 18.063
lfoot -10.6929 2.72979
ltoes 0.673093
420
root 0.476448 17.7424 7.41076 9.50358 -0.388963 -1.40774
lowerback -0.876283 -0.317494 -0.376603
upperback 3.22909 -0.476907 1.9126
thorax 3.83359 -0.281988 2.16228
lowerneck -11.6324 0.485622 -1.86002
upperneck 37.4715 0.661214 1.50052
head 14.9451 0.217607 1.06323
rclavicle 1.68967e-015 1.19271e-015
rhumerus -25.7406 -14.9142 -79.4428
rradius 22.8006
rwrist 38.4123
rhand -15.8811 -25.6254
rfingers 7.12502
rthumb 10.3148 -55.3524
lclavicle 1.68967e-015 1.19271e-015
lhumerus -22.9137 -4.1048 90.0643
lradius 18.0788
lwrist 5.62711
lhand -25.1655 -5.89463
lfingers 7.12502
lthumb 1.35176 24.0808
rfemur -13.0283 -1.66169 19.2646
rtibia 18.9215
rfoot -13.0476 -2.35973
rtoes 14.4983
lfemur -13.874 7.01633 -18.0997
ltibia 18.0718
lfoot -10.6746 2.76728
ltoes 0.718244
421
root 0.472038 17.7423 7.40486 9.49157 -0.343197 -1.41215
lowerback -0.891824 -0.315018 -0.371224
upperback 3.22262 -0.473488 1.90493
thorax 3.83539 -0.279944 2.15141
lowerneck -11.5933 0.467958 -1.86684
upperneck 37.5579 0.629333 1.51911
head 14.9786 0.205074 1.0683
rclavicle -1.09332e-015 5.96354e-015
rhumerus -25.6249 -14.89 -79.5088
rradius 22.8462
rwrist 38.2501
rhand -15.9333 -25.6278
rfingers 7.12502
rthumb 10.2645 -55.3574
lclavicle -1.09332e-015 5.96354e-015
lhumerus -22.8742 -3.97545 89.9486
lradius 18.0269
lwrist 5.64809
lhand -25.1852 -5.90461
lfingers 7.12502
lthumb 1.3327 24.071
rfemur -13.0316 -1.70351 19.2897
rtibia 18.9232
rfoot -13.0393 -2.35667
rtoes 14.5293
lfemur -13.8872 6.95685 -18.0749
ltibia 18.0768
lfoot -10.6601 2.79538
ltoes 0.754574
422
root 0.467815 17.742 7.39897 9.47565 -0.298424 -1.41972
lowerback -0.906911 -0.314142 -0.362755
upperback 3.22279 -0.472414 1.89785
thorax 3.84391 -0.279067 2.13933
lowerneck -11.5723 0.452405 -1.8651
upperneck 37.6379 0.602941 1.52597
head 15.0133 0.19454 1.06783
rclavicle 2.98177e-016 -1.59028e-014
rhumerus -25.5018 -14.859 -79.5797
rradius 22.8872
rwrist 38.1128
rhand -15.9747 -25.6319
rfingers 7.12502
rthumb 10.2246 -55.3634
lclavicle 2.98177e-016 -1.59028e-014
lhumerus -22.828 -3.84384 89.8276
lradius 17.9897
lwrist 5.69912
lhand -25.1077 -5.69957
lfingers 7.12502
lthumb 1.40758 24.2755
rfemur -13.0325 -1.74654 19.3175
rtibia 18.929
rfoot -13.0332 -2.35377
rtoes 14.5456
lfemur -13.8914 6.90816 -18.0474
ltibia 18.073
lfoot -10.6457 2.81196
ltoes 0.777469
423
root 0.463713 17.7416 7.39283 9.45441 -0.255967 -1.4174
lowerback -0.913261 -0.314103 -0.365775
upperback 3.22528 -0.472032 1.88881
thorax 3.85001 -0.278856 2.13169
lowerneck -11.5614 0.436937 -1.85936
upperneck 37.7093 0.578167 1.52634
head 15.0463 0.18446 1.06412
rclavicle -7.95139e-016 1.98785e-015
rhumerus -25.3826 -14.8192 -79.6497
rradius 22.9259
rwrist 37.999
rhand -16.0045 -25.6399
rfingers 7.12502
rthumb 10.1958 -55.3729
lclavicle -7.95139e-016 1.98785e-015
lhumerus -22.7759 -3.69818 89.7008
lradius 17.9566
lwrist 5.73715
lhand -24.9928 -5.39995
lfingers 7.12502
lthumb 1.51849 24.5744
rfemur -13.0316 -1.78712 19.3337
rtibia 18.9397
rfoot -13.0286 -2.35566
rtoes 14.5384
lfemur -13.8868 6.8625 -18.031
ltibia 18.0612
lfoot -10.6293 2.82356
ltoes 0.779872
424
root 0.459625 17.7412 7.38628 9.42717 -0.214468 -1.40853
lowerback -0.906462 -0.313371 -0.375885
upperback 3.22609 -0.470344 1.87805
thorax 3.8469 -0.278119 2.12634
lowerneck -11.5457 0.421454 -1.85253
upperneck 37.7653 0.554309 1.52333
head 15.0707 0.174622 1.05867
rclavicle 9.14409e-015 2.38542e-015
rhumerus -25.2804 -14.7647 -79.7161
rradius 22.9669
rwrist 37.8897
rhand -16.0244 -25.6507
rfingers 7.12502
rthumb 10.1766 -55.3846
lclavicle 9.14409e-015 2.38542e-015
lhumerus -22.7272 -3.52762 89.5675
lradius 17.9281
lwrist 5.73733
lhand -24.8714 -5.06003
lfingers 7.12502
lthumb 1.63573 24.9134
rfemur -13.0273 -1.82043 19.3422
rtibia 18.9536
rfoot -13.025 -2.36679
rtoes 14.5178
lfemur -13.876 6.81944 -18.0209
ltibia 18.0463
lfoot -10.6117 2.82788
ltoes 0.773072
425
root 0.455381 17.7408 7.37923 9.39744 -0.175577 -1.40226
lowerback -0.891053 -0.309796 -0.385208
upperback 3.22395 -0.464819 1.86821
thorax 3.83569 -0.275395 2.12168
lowerneck -11.5205 0.40429 -1.84979
upperneck 37.8058 0.528326 1.52209
head 15.0854 0.163703 1.05406
rclavicle -7.95139e-016 -1.78906e-014
rhumerus -25.2002 -14.6928 -79.7776
rradius 23.0145
rwrist 37.7777
rhand -16.0326 -25.6641
rfingers 7.12502
rthumb 10.1687 -55.3983
lclavicle -7.95139e-016 -1.78906e-014
lhumerus -22.6813 -3.32967 89.4288
lradius 17.8999
lwrist 5.68523
lhand -24.7708 -4.75565
lfingers 7.12502
lthumb 1.73298 25.2171
rfemur -13.0247 -1.8343 19.3537
rtibia 18.9712
rfoot -13.0206 -2.39648
rtoes 14.4897
lfemur -13.8635 6.77394 -18.0061
ltibia 18.0291
lfoot -10.5914 2.83483
ltoes 0.754553
426
root 0.450999 17.7403 7.37185 9.36596 -0.140922 -1.39989
lowerback -0.869763 -0.303371 -0.393573
upperback 3.21852 -0.455504 1.8603
thorax 3.81761 -0.270724 2.11866
lowerneck -11.4867 0.387127 -1.8515
upperneck 37.8327 0.502988 1.52229
head 15.0912 0.152758 1.05069
rclavicle -3.08116e-015 8.34896e-015
rhumerus -25.1429 -14.602 -79.8335
rradius 23.0687
rwrist 37.6589
rhand -16.0302 -25.6786
rfingers 7.12502
rthumb 10.171 -55.4128
lclavicle -3.08116e-015 8.34896e-015
lhumerus -22.6348 -3.10661 89.2841
lradius 17.8639
lwrist 5.57274
lhand -24.7192 -4.53615
lfingers 7.12502
lthumb 1.78275 25.4361
rfemur -13.0217 -1.82949 19.3695
rtibia 18.9877
rfoot -13.0131 -2.44179
rtoes 14.4544
lfemur -13.8519 6.72483 -17.9853
ltibia 18.0149
lfoot -10.5705 2.8467
ltoes 0.740498
427
root 0.446781 17.7398 7.36479 9.33457 -0.106457 -1.40209
lowerback -0.854147 -0.29651 -0.395501
upperback 3.21306 -0.445862 1.85327
thorax 3.80264 -0.265725 2.11292
lowerneck -11.45 0.371096 -1.85377
upperneck 37.8485 0.480298 1.52044
head 15.0909 0.142678 1.0468
rclavicle 2.38542e-015 1.43125e-014
rhumerus -25.0982 -14.5012 -79.886
rradius 23.1207
rwrist 37.5406
rhand -16.0232 -25.6878
rfingers 7.12502
rthumb 10.1777 -55.4216
lclavicle 2.38542e-015 1.43125e-014
lhumerus -22.5858 -2.87236 89.1348
lradius 17.824
lwrist 5.41953
lhand -24.7018 -4.38488
lfingers 7.12502
lthumb 1.79958 25.5873
rfemur -13.0158 -1.8283 19.3896
rtibia 19.001
rfoot -13.0053 -2.48301
rtoes 14.4189
lfemur -13.8418 6.67808 -17.9602
ltibia 18.0065
lfoot -10.5558 2.85701
ltoes 0.727907
428
root 0.442901 17.7393 7.35834 9.30461 -0.0718629 -1.4106
lowerback -0.851696 -0.289858 -0.38738
upperback 3.21079 -0.43694 1.84703
thorax 3.79839 -0.260876 2.10228
lowerneck -11.4211 0.356256 -1.85386
upperneck 37.8599 0.460524 1.51452
head 15.0903 0.133632 1.04126
rclavicle -4.67144e-015 -7.55382e-015
rhumerus -25.0547 -14.4039 -79.9359
rradius 23.1648
rwrist 37.4363
rhand -16.0056 -25.6918
rfingers 7.12502
rthumb 10.1948 -55.4248
lclavicle -4.67144e-015 -7.55382e-015
lhumerus -22.5259 -2.64414 88.9819
lradius 17.7851
lwrist 5.25571
lhand -24.697 -4.24776
lfingers 7.12502
lthumb 1.80424 25.7244
rfemur -13.006 -1.83863 19.4157
rtibia 19.0086
rfoot -12.9986 -2.51294
rtoes 14.3758
lfemur -13.8344 6.63857 -17.9301
ltibia 18.006
lfoot -10.5509 2.8627
ltoes 0.71753
429
root 0.439383 17.7387 7.35233 9.27701 -0.0339556 -1.41871
lowerback -0.85816 -0.284424 -0.375384
upperback 3.21011 -0.429788 1.83943
thorax 3.80088 -0.256816 2.08796
lowerneck -11.4046 0.341712 -1.84849
upperneck 37.872 0.441468 1.50452
head 15.0929 0.125119 1.03324
rclavicle -6.95746e-016 -3.97569e-016
rhumerus -25.0106 -14.3289 -79.9804
rradius 23.1959
rwrist 37.3618
rhand -15.9843 -25.6856
rfingers 7.12502
rthumb 10.2153 -55.4176
lclavicle -6.95746e-016 -3.97569e-016
lhumerus -22.4572 -2.43006 88.8275
lradius 17.7334
lwrist 5.0826
lhand -24.7687 -4.26719
lfingers 7.12502
lthumb 1.73498 25.7055
rfemur -12.9936 -1.86348 19.4405
rtibia 19.0108
rfoot -12.9923 -2.53193
rtoes 14.3205
lfemur -13.8323 6.60301 -17.903
ltibia 18.0148
lfoot -10.5543 2.86466
ltoes 0.70741
430
root 0.436175 17.7382 7.34648 9.25317 0.00830388 -1.43324
lowerback -0.871662 -0.280593 -0.352815
upperback 3.21134 -0.425156 1.83195
thorax 3.80935 -0.253736 2.06771
lowerneck -11.404 0.326944 -1.83903
upperneck 37.8862 0.421571 1.4936
head 15.1004 0.116685 1.02409
rclavicle 5.46658e-015 8.34896e-015
rhumerus -24.9583 -14.2782 -80.0226
rradius 23.211
rwrist 37.3167
rhand -15.9608 -25.6709
rfingers 7.12502
rthumb 10.238 -55.4017
lclavicle 5.46658e-015 8.34896e-015
lhumerus -22.3825 -2.21652 88.6677
lradius 17.6659
lwrist 4.87858
lhand -24.8407 -4.35572
lfingers 7.12502
lthumb 1.66538 25.6175
rfemur -12.9816 -1.89535 19.4718
rtibia 19.0081
rfoot -12.9851 -2.54726
rtoes 14.2648
lfemur -13.8393 6.56948 -17.8708
ltibia 18.0334
lfoot -10.5632 2.86457
ltoes 0.693433
431
root 0.432917 17.7375 7.34017 9.23396 0.0494583 -1.45487
lowerback -0.883471 -0.275448 -0.324434
upperback 3.21117 -0.418956 1.82581
thorax 3.8153 -0.249694 2.04565
lowerneck -11.4138 0.310283 -1.83005
upperneck 37.9023 0.397722 1.48649
head 15.1112 0.107013 1.01611
rclavicle 2.18663e-015 -3.97569e-016
rhumerus -24.9018 -14.264 -80.0578
rradius 23.2101
rwrist 37.3096
rhand -15.9426 -25.6437
rfingers 7.12502
rthumb 10.2555 -55.3737
lclavicle 2.18663e-015 -3.97569e-016
lhumerus -22.304 -2.00328 88.5048
lradius 17.577
lwrist 4.65163
lhand -24.8741 -4.48848
lfingers 7.12502
lthumb 1.6332 25.485
rfemur -12.9757 -1.90614 19.511
rtibia 19.0025
rfoot -12.9726 -2.58048
rtoes 14.2147
lfemur -13.8585 6.53408 -17.8308
ltibia 18.0613
lfoot -10.5727 2.87057
ltoes 0.668527
432
root 0.429565 17.7369 7.33361 9.21881 0.0874934 -1.48053
lowerback -0.895333 -0.268389 -0.294078
upperback 3.20887 -0.410261 1.82044
thorax 3.81899 -0.244335 2.02338
lowerneck -11.4216 0.291877 -1.82828
upperneck 37.9128 0.369449 1.48943
head 15.119 0.0958341 1.01287
rclavicle 5.1684e-015 -1.35174e-014
rhumerus -24.8418 -14.2813 -80.0856
rradius 23.19
rwrist 37.3268
rhand -15.9271 -25.6112
rfingers 7.12502
rthumb 10.2705 -55.3404
lclavicle 5.1684e-015 -1.35174e-014
lhumerus -22.2326 -1.77894 88.3416
lradius 17.494
lwrist 4.43102
lhand -24.8956 -4.60238
lfingers 7.12502
lthumb 1.61238 25.3713
rfemur -12.9745 -1.89257 19.5545
rtibia 18.9938
rfoot -12.9556 -2.63249
rtoes 14.1782
lfemur -13.8884 6.49705 -17.7862
ltibia 18.0977
lfoot -10.5808 2.88319
ltoes 0.642954
